<?xml version="1.0" encoding="UTF-8" standalone="no"?>
<!-- Created with Inkscape (http://www.inkscape.org/) -->

<svg
   width="69.741631mm"
   height="35.114868mm"
   viewBox="0 0 69.74163 35.114868"
   version="1.1"
   id="svg5"
   inkscape:version="1.1 (c68e22c387, 2021-05-23)"
   sodipodi:docname="money.svg"
   inkscape:export-filename="C:\Users\MarcusT\Documents\Are You KIASU Enough\areyoumeticulousenough\src\money.png"
   inkscape:export-xdpi="314.05701"
   inkscape:export-ydpi="314.05701"
   xmlns:inkscape="http://www.inkscape.org/namespaces/inkscape"
   xmlns:sodipodi="http://sodipodi.sourceforge.net/DTD/sodipodi-0.dtd"
   xmlns="http://www.w3.org/2000/svg"
   xmlns:svg="http://www.w3.org/2000/svg">
  <sodipodi:namedview
     id="namedview7"
     pagecolor="#ffffff"
     bordercolor="#666666"
     borderopacity="1.0"
     inkscape:pageshadow="2"
     inkscape:pageopacity="0.0"
     inkscape:pagecheckerboard="0"
     inkscape:document-units="mm"
     showgrid="false"
     inkscape:zoom="1.3879489"
     inkscape:cx="239.20189"
     inkscape:cy="199.93531"
     inkscape:window-width="1920"
     inkscape:window-height="1013"
     inkscape:window-x="1911"
     inkscape:window-y="-9"
     inkscape:window-maximized="1"
     inkscape:current-layer="layer1" />
  <defs
     id="defs2" />
  <g
     inkscape:label="Layer 1"
     inkscape:groupmode="layer"
     id="layer1"
     transform="translate(-10.117628,-9.1644842)">
    <path
       id="rect846"
       style="opacity:0.99;fill:#ffdd55;stroke:#090909;stroke-width:0.352676;stroke-linecap:round"
       d="M 10.293966,9.3408222 H 79.68292 V 44.035299 H 10.293966 Z" />
    <path
       id="path1196"
       style="opacity:1;fill:#c8ab37;fill-opacity:0.992157;stroke:#000000;stroke-width:0.497;stroke-linecap:round;stroke-miterlimit:4;stroke-dasharray:none"
       d="m 70.81471,24.759804 c 10e-7,6.669503 -2.998018,11.334831 -9.024155,11.33483 -6.026137,0 -8.484974,-4.732725 -8.484974,-11.402228 0,-6.669502 2.998018,-7.830157 9.024154,-7.830157 6.026137,-10e-7 8.484975,1.228052 8.484975,7.897555 z"
       sodipodi:nodetypes="sssss" />
    <path
       id="path3552"
       style="opacity:0.99;stroke:#000000;stroke-width:0.105804;stroke-linecap:round"
       d="m 58.584299,23.342659 a 0.75822228,0.75822228 0 0 1 -0.758222,0.758222 0.75822228,0.75822228 0 0 1 -0.758223,-0.758222 0.75822228,0.75822228 0 0 1 0.758223,-0.758222 0.75822228,0.75822228 0 0 1 0.758222,0.758222 z" />
    <path
       id="circle3634"
       style="opacity:0.99;stroke:#000000;stroke-width:0.105804;stroke-linecap:round"
       d="m 66.469808,23.342659 a 0.75822228,0.75822228 0 0 1 -0.758222,0.758222 0.75822228,0.75822228 0 0 1 -0.758222,-0.758222 0.75822228,0.75822228 0 0 1 0.758222,-0.758222 0.75822228,0.75822228 0 0 1 0.758222,0.758222 z" />
    <path
       id="path3658"
       style="opacity:0.99;stroke:#000000;stroke-width:0.105804;stroke-linecap:round"
       d="m 63.21863,26.711891 a 1.5012035,0.50040114 0 0 1 -1.501204,0.500401 1.5012035,0.50040114 0 0 1 -1.501203,-0.500401 1.5012035,0.50040114 0 0 1 1.501203,-0.500401 1.5012035,0.50040114 0 0 1 1.501204,0.500401 z" />
    <path
       style="fill:#000000;stroke:#000000;stroke-width:0.264583px;stroke-linecap:butt;stroke-linejoin:miter;stroke-opacity:1"
       d="m 57.337444,30.571045 c 1.560501,1.441285 1.971683,2.263425 4.246044,2.274667 2.268703,0.01121 2.506225,-0.439223 4.566183,-2.544256 -0.469093,0.256997 -2.242275,0.850364 -4.650429,0.758222 -1.952745,-0.07472 -4.161798,-0.488633 -4.161798,-0.488633 z"
       id="path3861"
       sodipodi:nodetypes="cscsc" />
    <g
       aria-label="$"
       id="text7205"
       style="font-size:27.2149px;line-height:1.25;stroke-width:0.680374">
      <path
         d="m 27.796082,37.342603 q -0.02721,0.08164 -0.02721,0.408223 0,0.353794 0,0.762017 0,0.408224 0,0.789232 0,0.381009 0,0.517083 0,0.136075 -0.136075,0.21772 -0.136074,0.08164 -0.326578,0.08164 -0.16329,0 -0.299364,-0.08164 -0.136075,-0.05443 -0.136075,-0.21772 v -2.258836 q 0,-0.08165 -0.217719,-0.10886 -0.190504,-0.02721 -0.244934,-0.05443 L 25.292316,37.124883 Q 24.584729,36.961594 23.768282,36.66223 22.97905,36.335651 22.298677,35.872998 21.64552,35.410345 21.210081,34.757187 20.774643,34.10403 20.774643,33.233153 q 0,-0.653158 0.435438,-0.898092 0.462654,-0.272149 1.034166,-0.272149 0.16329,0 0.353794,0 0.217719,0 0.381009,0.05443 0.244934,0.10886 0.408223,0.353794 0.190505,0.217719 0.299364,0.435438 0.217719,0.489868 0.299364,0.952522 0.05443,0.326578 0.05443,0.680372 0.02721,0.326579 0.108859,0.653158 0.08165,0.299364 0.244935,0.598727 0.163289,0.272149 0.489868,0.462654 0.408223,0.244934 0.762017,0.244934 0.381008,-0.02722 0.843662,-0.02722 0.108859,0 0.217719,-0.10886 0.08165,-0.08164 0.08165,-0.190504 v -7.075874 q 0,-0.08164 -0.05443,-0.163289 -0.02722,-0.10886 -0.08165,-0.190504 -0.02721,-0.05443 -0.136074,-0.10886 -1.006952,-0.489868 -2.013903,-1.034166 -0.979736,-0.544298 -1.768968,-1.251886 -0.789232,-0.707587 -1.279101,-1.632894 -0.489868,-0.925306 -0.489868,-2.231621 0,-1.006952 0.299364,-1.768969 0.326579,-0.789232 0.870877,-1.38796 0.544298,-0.598727 1.2791,-1.034166 0.762017,-0.435438 1.632894,-0.762017 0.408224,-0.136074 0.843662,-0.217719 0.435438,-0.10886 0.816447,-0.244934 0.163289,-0.05443 0.244934,-0.435439 0.08164,-0.381008 0.10886,-0.816447 0.02722,-0.435438 0.02722,-0.816446 0,-0.408224 0.05443,-0.489869 0.05443,-0.108859 0.190505,-0.136074 0.136074,-0.05443 0.272149,-0.05443 0.136074,0 0.244934,0.05443 0.108859,0.05443 0.108859,0.136074 v 2.231622 q 0,0.136075 0.136075,0.217719 0.108859,0.08165 0.353793,0.16329 0.244935,0.05443 0.517084,0.108859 0.299363,0.05443 0.544298,0.136075 0.272149,0.05443 0.435438,0.08164 0.843662,0.21772 1.605679,0.680373 0.762017,0.435438 1.2791,1.170241 0.244934,0.381008 0.381009,0.898091 0.163289,0.517083 0.108859,0.979737 -0.05443,0.462653 -0.353793,0.816447 -0.299364,0.326578 -0.925307,0.326578 -0.707587,0 -1.061381,-0.326578 -0.353794,-0.353794 -0.544298,-0.843662 -0.163289,-0.517083 -0.244934,-1.088596 -0.08164,-0.598728 -0.244934,-1.088596 -0.136075,-0.517083 -0.435438,-0.843662 -0.299364,-0.353794 -0.898092,-0.353794 -0.10886,0 -0.217719,0.02722 -0.08164,0.02721 -0.190505,0.02721 -0.163289,0.08165 -0.163289,0.299364 v 6.77651 q 0,0.136074 0.136074,0.272149 0.136075,0.136074 0.244935,0.217719 h 0.02721 q 0.408224,0.299364 0.952522,0.544298 0.571513,0.217719 1.034166,0.462653 1.006951,0.517083 1.741754,1.224671 1.687323,1.578464 1.687323,3.8373 0,1.061382 -0.299364,1.877828 -0.272149,0.789233 -0.816446,1.38796 -0.517084,0.598728 -1.279101,1.061381 -0.734802,0.435439 -1.660109,0.789232 -0.408223,0.16329 -0.870876,0.272149 -0.435439,0.10886 -0.843662,0.299364 -0.08164,0.05443 -0.16329,0.08164 -0.05443,0.05443 -0.136074,0.10886 z M 26.84356,24.44274 q 0.08164,0 0.08164,-0.136074 0.02722,-0.136075 0.02722,-0.190504 v -5.796774 q 0,-0.163289 -0.217719,-0.190504 -0.190504,-0.02721 -0.462653,0.02722 -0.244935,0.05443 -0.489869,0.136074 -0.217719,0.08165 -0.299364,0.136075 -0.653157,0.462653 -0.979736,1.251885 -0.299364,0.762017 -0.272149,1.632894 0.02721,0.843662 0.381009,1.632894 0.353793,0.789232 0.979736,1.22467 0.217719,0.16329 0.571513,0.272149 0.381009,0.10886 0.680372,0 z m 1.034167,11.566333 q 0,0.136074 0.108859,0.217719 0.136075,0.05443 0.244934,0.05443 0.544298,-0.02721 0.979737,-0.381009 0.435438,-0.381009 0.734802,-0.898092 0.326579,-0.544298 0.489868,-1.115811 0.163289,-0.598727 0.163289,-1.061381 0,-0.462653 -0.190504,-1.034166 -0.163289,-0.571513 -0.489868,-1.088596 -0.326579,-0.517083 -0.789232,-0.843662 -0.435438,-0.353793 -0.979736,-0.353793 -0.136075,0 -0.21772,0.05443 -0.05443,0.02721 -0.05443,0.190504 z"
         style="font-family:bun;-inkscape-font-specification:bun"
         id="path41502" />
    </g>
    <path
       id="path14852"
       style="opacity:0.99;fill:#c9ac37;fill-opacity:1;stroke:#000000;stroke-width:0.5;stroke-linecap:round"
       d="M 72.780799,44.029351 H 50.667834 c 0.791343,-1.708331 1.712372,-2.725374 3.308077,-4.025629 1.474224,-1.201266 4.733168,-3.12154 7.883201,-3.593579 4.237621,-0.44552 9.247806,3.841682 10.921687,7.619208 z"
       sodipodi:nodetypes="ccscc" />
    <path
       id="path18017"
       style="opacity:0.99;fill:#c9ac37;fill-opacity:1;stroke:#000000;stroke-width:0.499999;stroke-linecap:round"
       d="m 70.657626,21.353766 c -0.420309,0.798077 -1.897445,-1.277943 -4.363974,-1.87197 -1.222055,-0.294313 -1.844688,1.465604 -3.254557,1.083026 -1.674744,-0.454453 -3.223264,-1.671216 -4.818127,-1.574007 -4.450572,0.271266 -6.92905,7.114237 -8.385792,0.694947 -0.415997,-1.833134 4.634301,-4.474653 10.14911,-5.73878 7.099161,-1.627299 13.115355,2.769928 10.67334,7.406784 z"
       sodipodi:nodetypes="sssssss" />
  </g>
</svg>
