<?xml version="1.0" encoding="UTF-8" standalone="no"?>
<!-- Created with Inkscape (http://www.inkscape.org/) -->

<svg
   width="281.0181mm"
   height="42.473778mm"
   viewBox="0 0 281.01809 42.473778"
   version="1.1"
   id="svg5"
   inkscape:version="1.1 (c68e22c387, 2021-05-23)"
   sodipodi:docname="logo.svg"
   xmlns:inkscape="http://www.inkscape.org/namespaces/inkscape"
   xmlns:sodipodi="http://sodipodi.sourceforge.net/DTD/sodipodi-0.dtd"
   xmlns="http://www.w3.org/2000/svg"
   xmlns:svg="http://www.w3.org/2000/svg">
  <sodipodi:namedview
     id="namedview7"
     pagecolor="#ffffff"
     bordercolor="#666666"
     borderopacity="1.0"
     inkscape:pageshadow="2"
     inkscape:pageopacity="0.0"
     inkscape:pagecheckerboard="0"
     inkscape:document-units="mm"
     showgrid="false"
     inkscape:zoom="2.6832492"
     inkscape:cx="551.19741"
     inkscape:cy="91.493552"
     inkscape:window-width="1920"
     inkscape:window-height="1013"
     inkscape:window-x="1911"
     inkscape:window-y="-9"
     inkscape:window-maximized="1"
     inkscape:current-layer="layer1" />
  <defs
     id="defs2" />
  <g
     inkscape:label="Layer 1"
     inkscape:groupmode="layer"
     id="layer1"
     transform="translate(-2.8475868,-103.49822)">
    <path
       id="rect22088"
       style="opacity:0.99;fill:#e06666;stroke:#000000;stroke-width:2.34253;stroke-linecap:round"
       transform="scale(1,-1)"
       d="M 4.0188518,-144.80074 H 282.69442 v 40.13125 H 4.0188518 Z" />
    <g
       aria-label="“Are You  "
       id="text914"
       style="font-size:14.1111px;line-height:1.25;font-family:'Bungee Shade';-inkscape-font-specification:'Bungee Shade';stroke-width:0.28865"
       transform="translate(-9.2303717)">
      <path
         d="m 19.099882,111.97268 h 1.086555 q 0.268111,0 0.381,0.127 0.127,0.11288 0.127,0.381 v 0.56444 q 0,0.26811 -0.127,0.39511 -0.112889,0.11289 -0.381,0.11289 h -0.973666 q -0.183444,0 -0.282222,0.11289 -0.09878,0.0988 -0.09878,0.28222 v 0.21167 h 1.53811 q 0.268111,0 0.381,0.127 0.127,0.11288 0.127,0.381 v 2.08844 q 0,0.26811 -0.127,0.39511 -0.112889,0.11289 -0.381,0.11289 h -2.850442 q -0.268111,0 -0.395111,-0.11289 -0.112888,-0.127 -0.112888,-0.39511 v -2.65289 q 0,-1.07244 0.564444,-1.59455 0.578555,-0.53622 1.523998,-0.53622 z m 4.515552,0 h 1.086555 q 0.268111,0 0.381,0.127 0.127,0.11288 0.127,0.381 v 0.56444 q 0,0.26811 -0.127,0.39511 -0.112889,0.11289 -0.381,0.11289 h -0.973666 q -0.183444,0 -0.282222,0.11289 -0.09878,0.0988 -0.09878,0.28222 v 0.21167 h 1.538109 q 0.268111,0 0.381,0.127 0.127,0.11288 0.127,0.381 v 2.08844 q 0,0.26811 -0.127,0.39511 -0.112889,0.11289 -0.381,0.11289 h -2.850442 q -0.268111,0 -0.395111,-0.11289 -0.112888,-0.127 -0.112888,-0.39511 v -2.65289 q 0,-1.07244 0.564444,-1.59455 0.578555,-0.53622 1.523998,-0.53622 z"
         style="font-family:Bungee;-inkscape-font-specification:Bungee"
         id="path1679" />
      <path
         d="m 30.543955,114.93601 -0.663222,2.14488 h 2.215443 l -0.663222,-2.14488 q -0.05644,-0.127 -0.127,-0.18345 -0.05644,-0.0564 -0.141111,-0.0564 h -0.352777 q -0.08467,0 -0.155222,0.0564 -0.05645,0.0564 -0.112889,0.18345 z m -0.804333,6.68866 q 0,0.26811 -0.127,0.39511 -0.112888,0.11289 -0.380999,0.11289 h -2.074332 q -0.268111,0 -0.395111,-0.11289 -0.112889,-0.127 -0.112889,-0.39511 v -3.72533 q 0,-0.42334 0.127,-0.97367 0.141111,-0.55033 0.423333,-1.28411 l 1.227666,-3.20322 q 0.08467,-0.23989 0.254,-0.35278 0.183444,-0.11288 0.465666,-0.11288 h 3.795886 q 0.268111,0 0.437444,0.11288 0.183444,0.11289 0.268111,0.35278 l 1.227666,3.20322 q 0.282222,0.73378 0.409222,1.28411 0.141111,0.55033 0.141111,0.97367 v 3.72533 q 0,0.26811 -0.127,0.39511 -0.112889,0.11289 -0.381,0.11289 H 32.78762 q -0.282222,0 -0.423333,-0.11289 -0.127,-0.127 -0.127,-0.39511 v -1.97556 h -2.497665 z"
         style="font-family:Bungee;-inkscape-font-specification:Bungee"
         id="path1681" />
      <path
         d="m 40.351163,114.51267 v 1.80622 h 1.058333 q 0.366889,0 0.493888,-0.18344 0.127,-0.19756 0.127,-0.47978 v -0.47977 q 0,-0.28223 -0.127,-0.46567 -0.126999,-0.19756 -0.493888,-0.19756 z m -0.507999,7.62 h -2.17311 q -0.268111,0 -0.39511,-0.11289 -0.112889,-0.127 -0.112889,-0.39511 v -9.14399 q 0,-0.26812 0.112889,-0.381 0.126999,-0.127 0.39511,-0.127 h 4.698997 q 1.580443,0 2.173109,0.66322 0.606777,0.64911 0.606777,1.69333 v 0.64911 q 0,0.59267 -0.183444,1.016 -0.169333,0.40922 -0.606777,0.59267 0.761999,0.0847 1.227666,0.62088 0.479777,0.53623 0.479777,1.42522 v 2.99156 q 0,0.26811 -0.127,0.39511 -0.112889,0.11289 -0.381,0.11289 h -2.18722 q -0.268111,0 -0.395111,-0.11289 -0.112889,-0.127 -0.112889,-0.39511 v -2.159 q 0,-0.31044 -0.127,-0.45156 -0.112888,-0.15522 -0.409222,-0.15522 h -1.975554 v 2.76578 q 0,0.26811 -0.127,0.39511 -0.112888,0.11289 -0.380999,0.11289 z"
         style="font-family:Bungee;-inkscape-font-specification:Bungee"
         id="path1683" />
      <path
         d="m 54.702127,122.13267 h -6.547551 q -0.268111,0 -0.395111,-0.11289 -0.112888,-0.127 -0.112888,-0.39511 v -9.14399 q 0,-0.26812 0.112888,-0.381 0.127,-0.127 0.395111,-0.127 h 6.547551 q 0.268111,0 0.380999,0.127 0.127,0.11288 0.127,0.381 v 1.65099 q 0,0.26811 -0.127,0.39511 -0.112888,0.11289 -0.380999,0.11289 h -3.894664 v 1.08656 h 2.751665 q 0.26811,0 0.380999,0.127 0.127,0.11289 0.127,0.381 v 1.50989 q 0,0.26811 -0.127,0.39511 -0.112889,0.11288 -0.380999,0.11288 h -2.751665 v 1.21356 h 3.894664 q 0.268111,0 0.380999,0.127 0.127,0.11289 0.127,0.381 v 1.651 q 0,0.26811 -0.127,0.39511 -0.112888,0.11289 -0.380999,0.11289 z"
         style="font-family:Bungee;-inkscape-font-specification:Bungee"
         id="path1685" />
      <path
         d="m 65.05964,122.13267 h -2.285998 q -0.268111,0 -0.395111,-0.11289 -0.112888,-0.127 -0.112888,-0.39511 v -1.80622 l -2.158999,-2.89278 q -0.324555,-0.43744 -0.437444,-0.762 -0.09878,-0.32455 -0.09878,-0.97366 v -2.70933 q 0,-0.26812 0.112889,-0.381 0.127,-0.127 0.395111,-0.127 h 2.173109 q 0.268111,0 0.381,0.127 0.127,0.11288 0.127,0.381 v 2.31422 q 0,0.14111 0.01411,0.29633 0.01411,0.15522 0.112889,0.29633 l 0.649111,1.016 q 0.07055,0.127 0.141111,0.18345 0.08467,0.0564 0.197555,0.0564 h 0.141111 q 0.112889,0 0.183444,-0.0564 0.08467,-0.0565 0.155222,-0.18345 l 0.649111,-1.016 q 0.09878,-0.14111 0.112889,-0.29633 0.01411,-0.15522 0.01411,-0.29633 v -2.31422 q 0,-0.26812 0.112889,-0.381 0.127,-0.127 0.39511,-0.127 h 2.102554 q 0.268111,0 0.381,0.127 0.127,0.11288 0.127,0.381 v 2.70933 q 0,0.64911 -0.112889,0.97366 -0.112889,0.32456 -0.423333,0.762 l -2.144887,2.90689 v 1.79211 q 0,0.26811 -0.127,0.39511 -0.112889,0.11289 -0.381,0.11289 z"
         style="font-family:Bungee;-inkscape-font-specification:Bungee"
         id="path1687" />
      <path
         d="m 78.465182,119.46567 q 0,0.64911 -0.197555,1.18533 -0.183444,0.52211 -0.677333,0.90311 -0.479777,0.36689 -1.340555,0.57856 -0.846666,0.21166 -2.158998,0.21166 -1.312332,0 -2.173109,-0.21166 -0.860777,-0.21167 -1.354666,-0.57856 -0.479777,-0.381 -0.677333,-0.90311 -0.183444,-0.53622 -0.183444,-1.18533 v -4.81189 q 0,-0.64911 0.183444,-1.17122 0.197556,-0.53622 0.677333,-0.91722 0.493889,-0.381 1.354666,-0.59266 0.860777,-0.21167 2.173109,-0.21167 1.312332,0 2.158998,0.21167 0.860778,0.21166 1.340555,0.59266 0.493889,0.381 0.677333,0.91722 0.197555,0.52211 0.197555,1.17122 z m -5.559773,-0.508 q 0,0.28222 0.211666,0.47978 0.211667,0.18344 0.973666,0.18344 0.762,0 0.973666,-0.18344 0.211667,-0.19756 0.211667,-0.47978 v -3.79589 q 0,-0.26811 -0.211667,-0.45155 -0.211666,-0.19756 -0.973666,-0.19756 -0.761999,0 -0.973666,0.19756 -0.211666,0.18344 -0.211666,0.45155 z"
         style="font-family:Bungee;-inkscape-font-specification:Bungee"
         id="path1689" />
      <path
         d="m 88.907391,119.46567 q 0,0.64911 -0.197555,1.18533 -0.183445,0.52211 -0.677333,0.90311 -0.479777,0.36689 -1.326443,0.57856 -0.846666,0.21166 -2.158999,0.21166 -1.312332,0 -2.158998,-0.21166 -0.846666,-0.21167 -1.340555,-0.57856 -0.479777,-0.381 -0.677332,-0.90311 -0.183445,-0.53622 -0.183445,-1.18533 v -6.98499 q 0,-0.26812 0.112889,-0.381 0.127,-0.127 0.395111,-0.127 h 2.215443 q 0.26811,0 0.380999,0.127 0.127,0.11288 0.127,0.381 v 6.43466 q 0,0.28222 0.211667,0.47977 0.211666,0.18345 0.945443,0.18345 0.747889,0 0.959555,-0.18345 0.211667,-0.19755 0.211667,-0.47977 v -6.43466 q 0,-0.26812 0.112889,-0.381 0.126999,-0.127 0.39511,-0.127 h 2.144888 q 0.26811,0 0.380999,0.127 0.127,0.11288 0.127,0.381 z"
         style="font-family:Bungee;-inkscape-font-specification:Bungee"
         id="path1691" />
    </g>
    <g
       aria-label="MERTICULOUS ENOUGH?&quot;"
       id="text10781"
       style="font-size:14.2328px;line-height:1.25;stroke-width:0.355821">
      <path
         d="m 97.799961,138.40631 h -2.120687 q -0.270423,0 -0.398519,-0.11386 -0.113862,-0.1281 -0.113862,-0.39852 v -9.22285 q 0,-0.27043 0.113862,-0.38429 0.128096,-0.12809 0.398519,-0.12809 h 2.29148 q 0.227725,0 0.370053,0.0996 0.156561,0.0996 0.284656,0.32736 l 1.280952,2.31995 q 0.07116,0.12809 0.113865,0.18502 0.0569,0.0569 0.14233,0.0569 h 0.12809 q 0.0854,0 0.1281,-0.0569 0.0569,-0.0569 0.12809,-0.18502 l 1.26672,-2.31995 q 0.1281,-0.22773 0.27042,-0.32736 0.15656,-0.0996 0.38429,-0.0996 h 2.30571 q 0.27043,0 0.38429,0.12809 0.12809,0.11386 0.12809,0.38429 v 9.22285 q 0,0.27042 -0.12809,0.39852 -0.11386,0.11386 -0.38429,0.11386 h -2.19185 q -0.27042,0 -0.39852,-0.11386 -0.11386,-0.1281 -0.11386,-0.39852 v -5.00995 l -0.83973,1.55138 q -0.1281,0.24196 -0.31313,0.35582 -0.17079,0.0996 -0.44121,0.0996 h -0.569315 q -0.270423,0 -0.455449,-0.0996 -0.170794,-0.11386 -0.298889,-0.35582 l -0.839735,-1.55138 v 5.00995 q 0,0.27042 -0.128096,0.39852 -0.113862,0.11386 -0.384285,0.11386 z"
         style="font-family:Bungee;-inkscape-font-specification:Bungee"
         id="path10863" />
      <path
         d="m 114.36692,138.40631 h -6.60401 q -0.27043,0 -0.39852,-0.11386 -0.11386,-0.1281 -0.11386,-0.39852 v -9.22285 q 0,-0.27043 0.11386,-0.38429 0.12809,-0.12809 0.39852,-0.12809 h 6.60401 q 0.27043,0 0.38429,0.12809 0.12809,0.11386 0.12809,0.38429 v 1.66523 q 0,0.27043 -0.12809,0.39852 -0.11386,0.11386 -0.38429,0.11386 h -3.92825 v 1.09593 h 2.7754 q 0.27042,0 0.38428,0.1281 0.1281,0.11386 0.1281,0.38428 v 1.52291 q 0,0.27042 -0.1281,0.39852 -0.11386,0.11386 -0.38428,0.11386 h -2.7754 v 1.22402 h 3.92825 q 0.27043,0 0.38429,0.1281 0.12809,0.11386 0.12809,0.38428 v 1.66524 q 0,0.27042 -0.12809,0.39852 -0.11386,0.11386 -0.38429,0.11386 z"
         style="font-family:Bungee;-inkscape-font-specification:Bungee"
         id="path10865" />
      <path
         d="m 121.36606,138.40631 h -2.30571 q -0.27042,0 -0.39852,-0.11386 -0.11386,-0.1281 -0.11386,-0.39852 v -6.9883 h -2.09222 q -0.27042,0 -0.39852,-0.11387 -0.11386,-0.12809 -0.11386,-0.39852 v -1.72216 q 0,-0.27043 0.11386,-0.38429 0.1281,-0.12809 0.39852,-0.12809 h 7.51492 q 0.27042,0 0.38428,0.12809 0.1281,0.11386 0.1281,0.38429 v 1.72216 q 0,0.27043 -0.1281,0.39852 -0.11386,0.11387 -0.38428,0.11387 h -2.09222 v 6.9883 q 0,0.27042 -0.1281,0.39852 -0.11386,0.11386 -0.38429,0.11386 z"
         style="font-family:Bungee;-inkscape-font-specification:Bungee"
         id="path10869" />
      <path
         d="m 126.14826,138.40631 q -0.27042,0 -0.39852,-0.11386 -0.11386,-0.1281 -0.11386,-0.39852 v -1.6937 q 0,-0.27043 0.11386,-0.38429 0.1281,-0.12809 0.39852,-0.12809 h 1.40905 v -4.78222 h -1.40905 q -0.27042,0 -0.39852,-0.11387 -0.11386,-0.12809 -0.11386,-0.39852 v -1.72216 q 0,-0.27043 0.11386,-0.38429 0.1281,-0.12809 0.39852,-0.12809 h 6.06317 q 0.27043,0 0.38429,0.12809 0.12809,0.11386 0.12809,0.38429 v 1.72216 q 0,0.27043 -0.12809,0.39852 -0.11386,0.11387 -0.38429,0.11387 h -1.38058 v 4.78222 h 1.38058 q 0.27043,0 0.38429,0.12809 0.12809,0.11386 0.12809,0.38429 v 1.6937 q 0,0.27042 -0.12809,0.39852 -0.11386,0.11386 -0.38429,0.11386 z"
         style="font-family:Bungee;-inkscape-font-specification:Bungee"
         id="path10871" />
      <path
         d="m 141.29195,138.40631 h -3.4728 q -1.7791,0 -2.6473,-0.71164 -0.85397,-0.71164 -0.85397,-2.19185 v -4.4264 q 0,-1.48021 0.85397,-2.19185 0.8682,-0.72587 2.6473,-0.72587 h 3.4728 q 0.27043,0 0.38429,0.12809 0.12809,0.11386 0.12809,0.38429 v 1.72216 q 0,0.27043 -0.12809,0.39852 -0.11386,0.11387 -0.38429,0.11387 h -2.86079 q -0.44122,0 -0.65471,0.18502 -0.21349,0.1708 -0.21349,0.52662 v 3.3874 q 0,0.35582 0.21349,0.52662 0.21349,0.15656 0.65471,0.15656 h 2.86079 q 0.27043,0 0.38429,0.12809 0.12809,0.11386 0.12809,0.38429 v 1.6937 q 0,0.27042 -0.12809,0.39852 -0.11386,0.11386 -0.38429,0.11386 z"
         style="font-family:Bungee;-inkscape-font-specification:Bungee"
         id="path10873" />
      <path
         d="m 152.13732,135.71631 q 0,0.65471 -0.19926,1.19556 -0.18502,0.52661 -0.68317,0.9109 -0.48392,0.37005 -1.33788,0.58354 -0.85397,0.21349 -2.17762,0.21349 -1.32365,0 -2.17762,-0.21349 -0.85397,-0.21349 -1.35212,-0.58354 -0.48391,-0.38429 -0.68317,-0.9109 -0.18503,-0.54085 -0.18503,-1.19556 v -7.04523 q 0,-0.27043 0.11387,-0.38429 0.12809,-0.12809 0.39851,-0.12809 h 2.23455 q 0.27043,0 0.38429,0.12809 0.12809,0.11386 0.12809,0.38429 v 6.49015 q 0,0.28466 0.2135,0.48392 0.21349,0.18502 0.95359,0.18502 0.75434,0 0.96783,-0.18502 0.2135,-0.19926 0.2135,-0.48392 v -6.49015 q 0,-0.27043 0.11386,-0.38429 0.12809,-0.12809 0.39852,-0.12809 h 2.16338 q 0.27043,0 0.38429,0.12809 0.12809,0.11386 0.12809,0.38429 z"
         style="font-family:Bungee;-inkscape-font-specification:Bungee"
         id="path10875" />
      <path
         d="m 161.78713,138.40631 h -7.24449 q -0.27042,0 -0.39852,-0.11386 -0.11386,-0.1281 -0.11386,-0.39852 v -9.22285 q 0,-0.27043 0.11386,-0.38429 0.1281,-0.12809 0.39852,-0.12809 h 2.20608 q 0.27043,0 0.38429,0.12809 0.12809,0.11386 0.12809,0.38429 v 7.04523 h 1.9499 v -2.30571 q 0,-0.27042 0.11386,-0.38429 0.12809,-0.12809 0.39852,-0.12809 h 2.06375 q 0.27043,0 0.38429,0.12809 0.12809,0.11387 0.12809,0.38429 v 4.48333 q 0,0.27042 -0.12809,0.39852 -0.11386,0.11386 -0.38429,0.11386 z"
         style="font-family:Bungee;-inkscape-font-specification:Bungee"
         id="path10877" />
      <path
         d="m 172.60406,135.71631 q 0,0.65471 -0.19926,1.19556 -0.18503,0.52661 -0.68318,0.9109 -0.48391,0.37005 -1.35211,0.58354 -0.85397,0.21349 -2.17762,0.21349 -1.32365,0 -2.19185,-0.21349 -0.8682,-0.21349 -1.36635,-0.58354 -0.48391,-0.38429 -0.68317,-0.9109 -0.18503,-0.54085 -0.18503,-1.19556 v -4.85338 q 0,-0.65471 0.18503,-1.18133 0.19926,-0.54084 0.68317,-0.92513 0.49815,-0.38428 1.36635,-0.59777 0.8682,-0.2135 2.19185,-0.2135 1.32365,0 2.17762,0.2135 0.8682,0.21349 1.35211,0.59777 0.49815,0.38429 0.68318,0.92513 0.19926,0.52662 0.19926,1.18133 z m -5.60772,-0.51238 q 0,0.28466 0.21349,0.48392 0.21349,0.18502 0.98206,0.18502 0.76857,0 0.98206,-0.18502 0.2135,-0.19926 0.2135,-0.48392 v -3.82862 q 0,-0.27043 -0.2135,-0.45545 -0.21349,-0.19926 -0.98206,-0.19926 -0.76857,0 -0.98206,0.19926 -0.21349,0.18502 -0.21349,0.45545 z"
         style="font-family:Bungee;-inkscape-font-specification:Bungee"
         id="path10879" />
      <path
         d="m 183.13633,135.71631 q 0,0.65471 -0.19926,1.19556 -0.18503,0.52661 -0.68318,0.9109 -0.48391,0.37005 -1.33788,0.58354 -0.85397,0.21349 -2.17762,0.21349 -1.32365,0 -2.17762,-0.21349 -0.85396,-0.21349 -1.35211,-0.58354 -0.48392,-0.38429 -0.68318,-0.9109 -0.18502,-0.54085 -0.18502,-1.19556 v -7.04523 q 0,-0.27043 0.11386,-0.38429 0.12809,-0.12809 0.39852,-0.12809 h 2.23455 q 0.27042,0 0.38428,0.12809 0.1281,0.11386 0.1281,0.38429 v 6.49015 q 0,0.28466 0.21349,0.48392 0.21349,0.18502 0.9536,0.18502 0.75434,0 0.96783,-0.18502 0.21349,-0.19926 0.21349,-0.48392 v -6.49015 q 0,-0.27043 0.11386,-0.38429 0.1281,-0.12809 0.39852,-0.12809 h 2.16339 q 0.27042,0 0.38428,0.12809 0.1281,0.11386 0.1281,0.38429 z"
         style="font-family:Bungee;-inkscape-font-specification:Bungee"
         id="path10881" />
      <path
         d="m 189.78302,138.40631 h -4.49756 q -0.27043,0 -0.39852,-0.11386 -0.11386,-0.1281 -0.11386,-0.39852 v -1.66524 q 0,-0.27042 0.11386,-0.38428 0.12809,-0.1281 0.39852,-0.1281 h 3.82862 q 0.18503,0 0.27042,-0.11386 0.0996,-0.1281 0.0996,-0.29889 0,-0.24196 -0.0996,-0.35582 -0.0854,-0.11386 -0.27042,-0.12809 l -2.13492,-0.29889 q -0.9963,-0.14233 -1.60831,-0.65471 -0.59777,-0.51238 -0.59777,-1.70794 v -1.49444 q 0,-1.20979 0.7828,-1.85027 0.7828,-0.6547 2.16339,-0.6547 h 3.98518 q 0.27042,0 0.38428,0.12809 0.1281,0.11386 0.1281,0.38429 v 1.6937 q 0,0.27042 -0.1281,0.39852 -0.11386,0.11386 -0.38428,0.11386 h -3.31624 q -0.18503,0 -0.28466,0.1281 -0.0996,0.11386 -0.0996,0.29888 0,0.18503 0.0996,0.31313 0.0996,0.12809 0.28466,0.14232 l 2.12068,0.28466 q 0.9963,0.14233 1.60831,0.65471 0.61201,0.51238 0.61201,1.70793 v 1.49445 q 0,1.20979 -0.79704,1.8645 -0.7828,0.64047 -2.14915,0.64047 z"
         style="font-family:Bungee;-inkscape-font-specification:Bungee"
         id="path10883" />
      <path
         d="m 204.59933,138.40631 h -6.60402 q -0.27042,0 -0.39851,-0.11386 -0.11387,-0.1281 -0.11387,-0.39852 v -9.22285 q 0,-0.27043 0.11387,-0.38429 0.12809,-0.12809 0.39851,-0.12809 h 6.60402 q 0.27043,0 0.38429,0.12809 0.12809,0.11386 0.12809,0.38429 v 1.66523 q 0,0.27043 -0.12809,0.39852 -0.11386,0.11386 -0.38429,0.11386 h -3.92825 v 1.09593 h 2.7754 q 0.27042,0 0.38428,0.1281 0.1281,0.11386 0.1281,0.38428 v 1.52291 q 0,0.27042 -0.1281,0.39852 -0.11386,0.11386 -0.38428,0.11386 h -2.7754 v 1.22402 h 3.92825 q 0.27043,0 0.38429,0.1281 0.12809,0.11386 0.12809,0.38428 v 1.66524 q 0,0.27042 -0.12809,0.39852 -0.11386,0.11386 -0.38429,0.11386 z"
         style="font-family:Bungee;-inkscape-font-specification:Bungee"
         id="path10885" />
      <path
         d="m 209.43848,138.40631 h -2.13492 q -0.27043,0 -0.39852,-0.11386 -0.11386,-0.1281 -0.11386,-0.39852 v -9.22285 q 0,-0.27043 0.11386,-0.38429 0.12809,-0.12809 0.39852,-0.12809 h 1.48021 q 0.27042,0 0.45545,0.0854 0.19926,0.0854 0.38428,0.29889 l 2.76117,3.15968 v -3.03158 q 0,-0.27043 0.11386,-0.38429 0.12809,-0.12809 0.39852,-0.12809 h 2.13492 q 0.27042,0 0.38428,0.12809 0.1281,0.11386 0.1281,0.38429 v 9.22285 q 0,0.27042 -0.1281,0.39852 -0.11386,0.11386 -0.38428,0.11386 h -2.13492 q -0.27043,0 -0.39852,-0.11386 -0.11386,-0.1281 -0.11386,-0.39852 v -1.75063 l -2.43381,-2.94619 v 4.69682 q 0,0.27042 -0.1281,0.39852 -0.11386,0.11386 -0.38428,0.11386 z"
         style="font-family:Bungee;-inkscape-font-specification:Bungee"
         id="path10887" />
      <path
         d="m 226.19046,135.71631 q 0,0.65471 -0.19926,1.19556 -0.18502,0.52661 -0.68317,0.9109 -0.48392,0.37005 -1.35212,0.58354 -0.85397,0.21349 -2.17762,0.21349 -1.32365,0 -2.19185,-0.21349 -0.8682,-0.21349 -1.36635,-0.58354 -0.48391,-0.38429 -0.68317,-0.9109 -0.18503,-0.54085 -0.18503,-1.19556 v -4.85338 q 0,-0.65471 0.18503,-1.18133 0.19926,-0.54084 0.68317,-0.92513 0.49815,-0.38428 1.36635,-0.59777 0.8682,-0.2135 2.19185,-0.2135 1.32365,0 2.17762,0.2135 0.8682,0.21349 1.35212,0.59777 0.49815,0.38429 0.68317,0.92513 0.19926,0.52662 0.19926,1.18133 z m -5.60772,-0.51238 q 0,0.28466 0.21349,0.48392 0.21349,0.18502 0.98206,0.18502 0.76857,0 0.98207,-0.18502 0.21349,-0.19926 0.21349,-0.48392 v -3.82862 q 0,-0.27043 -0.21349,-0.45545 -0.2135,-0.19926 -0.98207,-0.19926 -0.76857,0 -0.98206,0.19926 -0.21349,0.18502 -0.21349,0.45545 z"
         style="font-family:Bungee;-inkscape-font-specification:Bungee"
         id="path10889" />
      <path
         d="m 236.72272,135.71631 q 0,0.65471 -0.19926,1.19556 -0.18502,0.52661 -0.68317,0.9109 -0.48392,0.37005 -1.33788,0.58354 -0.85397,0.21349 -2.17762,0.21349 -1.32365,0 -2.17762,-0.21349 -0.85397,-0.21349 -1.35212,-0.58354 -0.48391,-0.38429 -0.68317,-0.9109 -0.18503,-0.54085 -0.18503,-1.19556 v -7.04523 q 0,-0.27043 0.11386,-0.38429 0.1281,-0.12809 0.39852,-0.12809 h 2.23455 q 0.27043,0 0.38429,0.12809 0.12809,0.11386 0.12809,0.38429 v 6.49015 q 0,0.28466 0.2135,0.48392 0.21349,0.18502 0.95359,0.18502 0.75434,0 0.96783,-0.18502 0.2135,-0.19926 0.2135,-0.48392 v -6.49015 q 0,-0.27043 0.11386,-0.38429 0.12809,-0.12809 0.39852,-0.12809 h 2.16338 q 0.27042,0 0.38429,0.12809 0.12809,0.11386 0.12809,0.38429 z"
         style="font-family:Bungee;-inkscape-font-specification:Bungee"
         id="path10891" />
      <path
         d="m 246.4437,138.40631 h -4.48333 q -1.7791,0 -2.6473,-0.71164 -0.85397,-0.71164 -0.85397,-2.19185 v -4.44063 q 0,-1.48021 0.85397,-2.19185 0.8682,-0.71164 2.6473,-0.71164 h 3.5582 q 0.27042,0 0.38428,0.12809 0.1281,0.11386 0.1281,0.38429 v 1.72216 q 0,0.27043 -0.1281,0.39852 -0.11386,0.11387 -0.38428,0.11387 h -2.96042 q -0.44122,0 -0.65471,0.18502 -0.21349,0.1708 -0.21349,0.52662 v 3.40163 q 0,0.35582 0.15656,0.52662 0.17079,0.17079 0.49814,0.17079 h 1.38059 V 133.496 q 0,-0.27043 0.11386,-0.38429 0.12809,-0.1281 0.39852,-0.1281 h 2.20608 q 0.27042,0 0.38429,0.1281 0.12809,0.11386 0.12809,0.38429 v 4.39793 q 0,0.27042 -0.12809,0.39852 -0.11387,0.11386 -0.38429,0.11386 z"
         style="font-family:Bungee;-inkscape-font-specification:Bungee"
         id="path10893" />
      <path
         d="m 251.41092,138.40631 h -2.20608 q -0.27042,0 -0.39852,-0.11386 -0.11386,-0.1281 -0.11386,-0.39852 v -9.22285 q 0,-0.27043 0.11386,-0.38429 0.1281,-0.12809 0.39852,-0.12809 h 2.20608 q 0.27043,0 0.38429,0.12809 0.12809,0.11386 0.12809,0.38429 v 3.08851 h 2.37688 v -3.08851 q 0,-0.27043 0.11386,-0.38429 0.1281,-0.12809 0.39852,-0.12809 h 2.20609 q 0.27042,0 0.38428,0.12809 0.1281,0.11386 0.1281,0.38429 v 9.22285 q 0,0.27042 -0.1281,0.39852 -0.11386,0.11386 -0.38428,0.11386 h -2.20609 q -0.27042,0 -0.39852,-0.11386 -0.11386,-0.1281 -0.11386,-0.39852 v -3.15968 h -2.37688 v 3.15968 q 0,0.27042 -0.12809,0.39852 -0.11386,0.11386 -0.38429,0.11386 z"
         style="font-family:Bungee;-inkscape-font-specification:Bungee"
         id="path10895" />
      <path
         d="m 265.00323,134.52076 -3.85709,0.52661 q -0.27043,0.0285 -0.39852,-0.0712 -0.11386,-0.0996 -0.15656,-0.37006 l -0.29889,-1.87873 q -0.0427,-0.27042 0.0712,-0.41275 0.1281,-0.14233 0.39852,-0.17079 l 2.83233,-0.39852 q 0.21349,-0.0285 0.29889,-0.12809 0.0854,-0.0996 0.0854,-0.31313 0,-0.19926 -0.0996,-0.29888 -0.0996,-0.0996 -0.28465,-0.0996 h -3.92825 q -0.27043,0 -0.39852,-0.11387 -0.11386,-0.12809 -0.11386,-0.39852 v -1.72216 q 0,-0.27043 0.11386,-0.38429 0.12809,-0.12809 0.39852,-0.12809 h 4.59719 q 1.38058,0 2.16339,0.6547 0.7828,0.64048 0.7828,1.85027 v 1.49444 q 0,1.19556 -0.59778,1.70794 -0.59778,0.51238 -1.6083,0.65471 z m -1.59408,3.88555 h -2.6046 q -0.27042,0 -0.39852,-0.11386 -0.11386,-0.1281 -0.11386,-0.39852 v -1.8645 q 0,-0.27042 0.11386,-0.38428 0.1281,-0.1281 0.39852,-0.1281 h 2.6046 q 0.27043,0 0.38429,0.1281 0.12809,0.11386 0.12809,0.38428 v 1.8645 q 0,0.27042 -0.12809,0.39852 -0.11386,0.11386 -0.38429,0.11386 z"
         style="font-family:Bungee;-inkscape-font-specification:Bungee"
         id="path10897" />
      <path
         d="m 275.69204,133.496 h -2.04952 q -0.37005,0 -0.48392,-0.0996 -0.0996,-0.11387 -0.11386,-0.48392 l -0.11386,-4.17021 q -0.0142,-0.37005 0.0854,-0.46968 0.11386,-0.11386 0.48391,-0.11386 h 2.34841 q 0.35582,0 0.45545,0.11386 0.11386,0.0996 0.0996,0.46968 l -0.11386,4.17021 q -0.0142,0.37005 -0.1281,0.48392 -0.0996,0.0996 -0.46968,0.0996 z m -4.41217,0 h -2.04952 q -0.37005,0 -0.48391,-0.0996 -0.0996,-0.11387 -0.11387,-0.48392 l -0.11386,-4.17021 q -0.0142,-0.37005 0.0854,-0.46968 0.11386,-0.11386 0.48391,-0.11386 h 2.34842 q 0.35582,0 0.45544,0.11386 0.11387,0.0996 0.0996,0.46968 l -0.11386,4.17021 q -0.0142,0.37005 -0.12809,0.48392 -0.0996,0.0996 -0.46969,0.0996 z"
         style="font-family:Bungee;-inkscape-font-specification:Bungee"
         id="path10899" />
    </g>
  </g>
</svg>
